<?xml version="1.0" standalone="no"?>
<!DOCTYPE svg PUBLIC "-//W3C//DTD SVG 20010904//EN"
 "http://www.w3.org/TR/2001/REC-SVG-20010904/DTD/svg10.dtd">
<svg version="1.0" xmlns="http://www.w3.org/2000/svg"
 width="1024.000000pt" height="1024.000000pt" viewBox="0 0 1024.000000 1024.000000"
 preserveAspectRatio="xMidYMid meet">

<g transform="translate(0.000000,1024.000000) scale(0.100000,-0.100000)"
fill="#000000" stroke="none">
<path d="M5055 7730 c-240 -37 -432 -205 -490 -430 -35 -133 -2 -306 78 -419
21 -28 37 -53 37 -55 0 -4 -106 -82 -530 -389 -36 -26 -114 -82 -175 -125
-141 -101 -151 -112 -165 -161 -7 -28 -10 -228 -8 -640 3 -544 2 -598 -13
-591 -9 5 -22 16 -29 25 -27 33 -147 95 -225 116 -158 43 -359 12 -491 -75
-167 -111 -254 -270 -254 -464 0 -351 362 -620 720 -536 71 16 180 67 237 111
103 79 194 238 209 366 l7 55 66 -41 c36 -22 91 -55 121 -72 30 -18 179 -108
330 -200 598 -366 614 -374 686 -361 28 6 176 92 539 314 270 165 567 343 577
347 10 4 17 -15 25 -70 31 -193 183 -364 390 -436 135 -47 323 -32 459 36 268
136 388 462 264 723 -37 78 -145 192 -229 242 -172 102 -404 107 -582 14 -37
-20 -86 -51 -108 -71 l-41 -35 0 622 c0 404 -4 628 -10 640 -14 26 -105 97
-370 290 -183 133 -483 353 -498 366 -2 1 12 24 32 49 109 144 126 374 40 550
-99 201 -372 341 -599 305z m196 -176 c109 -32 208 -118 257 -222 23 -49 27
-70 27 -152 -1 -82 -4 -103 -27 -153 -34 -71 -118 -161 -182 -194 -27 -13 -79
-31 -117 -39 -181 -38 -377 62 -457 233 -23 50 -27 71 -27 148 0 80 3 97 31
155 32 67 91 134 156 177 87 58 232 78 339 47z m449 -1015 c124 -91 305 -223
402 -294 l177 -130 1 -623 0 -623 -27 15 c-46 24 -537 314 -556 328 -16 12
-16 16 4 78 47 144 22 323 -62 449 -78 117 -236 223 -372 251 l-57 11 2 312 3
311 65 16 c36 8 90 29 120 46 30 17 60 27 65 23 6 -3 111 -80 235 -170z m-824
139 c37 -17 91 -37 119 -43 l50 -12 3 -311 2 -312 -27 -6 c-125 -28 -194 -61
-283 -135 -73 -60 -145 -167 -172 -253 -33 -104 -25 -266 17 -368 5 -13 -1
-22 -25 -35 -38 -22 -196 -114 -418 -246 -90 -53 -165 -97 -167 -97 -3 0 -5
281 -5 624 l0 624 173 124 c94 69 282 204 416 301 134 98 245 177 246 177 2 0
33 -14 71 -32z m441 -878 c85 -42 165 -121 201 -197 24 -51 27 -70 27 -158 0
-134 -28 -198 -127 -290 -96 -89 -151 -109 -288 -110 -100 0 -109 2 -174 34
-84 41 -164 119 -202 197 -27 54 -29 68 -29 169 0 103 2 113 29 163 61 109
132 170 245 209 56 20 81 23 158 20 80 -4 102 -9 160 -37z m-611 -751 c16 -17
59 -51 96 -75 229 -153 515 -132 732 51 59 51 68 55 88 44 13 -7 77 -44 143
-84 66 -39 206 -122 312 -185 106 -63 191 -115 190 -116 -1 -1 -126 -76 -277
-167 -151 -90 -358 -215 -460 -277 -102 -62 -233 -141 -292 -176 l-106 -64
-99 59 c-54 32 -181 109 -283 171 -102 62 -309 187 -460 278 -151 90 -279 168
-283 172 -7 6 62 49 463 285 181 107 195 115 201 115 3 0 18 -14 35 -31z
m-1244 -140 c86 -18 151 -54 212 -119 84 -88 101 -132 101 -260 0 -115 -14
-158 -76 -236 -141 -177 -412 -205 -588 -60 -186 153 -202 392 -36 561 99 102
243 144 387 114z m3507 -4 c106 -14 234 -115 291 -228 26 -52 30 -71 30 -143
0 -137 -56 -247 -162 -319 -218 -147 -521 -65 -630 171 -19 40 -23 66 -23 144
0 78 4 104 23 144 45 98 125 173 224 211 49 18 148 34 183 29 11 -1 40 -5 64
-9z"/>
</g>
</svg>
